<?xml version="1.0" encoding="UTF-8"?>
<svg xmlns="http://www.w3.org/2000/svg" width="800" height="400" viewBox="0 0 800 400">
  <line x1="10.000" y1="390.000" x2="790.000" y2="390.000" stroke="#000" stroke-width="1"/>
  <path d="M 10.000 286.292 L 14.499 277.238 L 18.848 280.492 L 23.497 283.181 L 27.846 283.622 L 32.393 283.406 L 37.342 281.164 L 41.691 279.390 L 46.489 276.182 L 50.757 273.462 L 55.406 276.996 L 60.355 279.131 L 64.554 282.850 L 69.235 285.951 L 73.434 286.537 L 78.083 284.247 L 82.882 294.921 L 87.531 298.469 L 91.730 309.005 L 96.379 305.701 L 101.145 300.624 L 105.494 306.521 L 110.143 307.483 L 114.791 312.455 L 119.440 314.527 L 124.239 311.622 L 128.438 307.111 L 132.787 310.754 L 137.286 311.469 L 142.231 312.297 L 146.434 307.791 L 151.082 308.555 L 155.764 306.942 L 160.263 308.359 L 165.212 310.734 L 169.411 308.994 L 174.177 306.666 L 178.976 294.288 L 183.175 298.251 L 187.523 296.481 L 192.022 300.783 L 196.704 296.791 L 201.203 300.374 L 206.302 305.514 L 210.468 304.000 L 214.967 305.179 L 219.912 302.520 L 224.116 304.304 L 229.224 306.548 L 233.414 302.246 L 237.763 293.064 L 242.411 298.342 L 247.210 295.262 L 251.709 298.090 L 256.058 288.410 L 260.707 287.704 L 265.356 290.710 L 270.155 290.512 L 274.654 290.911 L 279.002 296.852 L 283.947 296.618 L 288.300 294.988 L 292.499 289.920 L 297.448 291.059 L 301.791 292.610 L 306.441 294.807 L 311.090 298.150 L 315.439 299.216 L 320.088 296.203 L 324.737 298.101 L 329.385 297.145 L 333.734 299.130 L 338.533 297.830 L 343.032 298.647 L 347.231 298.787 L 352.180 297.895 L 356.379 297.728 L 361.477 296.473 L 365.676 299.024 L 370.175 301.212 L 375.124 302.061 L 379.323 303.329 L 383.972 298.628 L 388.771 297.828 L 393.270 294.347 L 397.769 292.127 L 401.996 292.165 L 406.645 292.083 L 411.144 292.968 L 416.093 290.089 L 420.291 285.680 L 424.940 281.791 L 429.711 272.166 L 434.060 275.689 L 438.709 274.775 L 443.357 277.463 L 448.006 274.437 L 452.805 268.659 L 457.004 266.530 L 461.503 266.135 L 466.002 260.653 L 470.679 257.918 L 475.150 254.886 L 480.098 247.758 L 484.447 249.243 L 488.946 253.109 L 493.745 252.618 L 498.094 262.840 L 503.193 257.019 L 507.392 259.819 L 511.591 267.212 L 516.240 266.288 L 521.188 264.164 L 525.387 258.052 L 529.886 263.296 L 534.685 261.257 L 539.112 261.667 L 539.184 260.062 L 543.611 259.546 L 548.260 257.506 L 552.758 253.835 L 557.407 254.474 L 562.056 245.873 L 566.255 241.973 L 570.904 237.660 L 575.403 244.995 L 580.052 244.075 L 584.551 243.652 L 589.199 245.878 L 593.848 246.552 L 598.347 249.963 L 602.996 246.126 L 607.495 245.739 L 612.144 239.663 L 616.793 243.637 L 620.992 235.935 L 625.640 236.713 L 630.139 234.081 L 634.788 240.862 L 639.287 238.401 L 643.936 238.167 L 648.585 241.552 L 653.084 230.570 L 657.733 231.269 L 662.231 231.123 L 666.880 230.049 L 671.529 229.459 L 675.878 213.927 L 680.527 207.601 L 685.026 207.851 L 689.675 206.131 L 694.174 197.893 L 698.822 197.583 L 703.471 189.305 L 707.970 175.781 L 712.619 177.267 L 717.118 174.706 L 721.767 160.544 L 726.416 156.155 L 730.615 144.791 L 735.263 144.002 L 739.762 143.805 L 744.411 151.172 L 748.910 144.841 L 753.559 139.175 L 758.208 110.470 L 762.707 95.024 L 767.356 80.645 L 771.854 77.980 L 776.503 38.940 L 781.152 10.000 L 785.351 46.465 L 790.000 47.057" fill="none" stroke="#000" stroke-width="2.0"/>
</svg>
